# xmcd CD database file
#
# Track frame offsets:
#	150
#	12352
#	31042
#	50070
#	71450
#	95232
#	119450
#	142445
#	175282
#	195410
#	206007
#	218957
#	227892
#
# Disc length: 3263 seconds
#
# Revision: 0
# Processed by: cddbd v1.5.2PL0 Copyright (c) Steve Scherf et al.
# Submitted via: CDex 1.51
#
DISCID=c80cbd0d
DTITLE=Erik van der Luijt - en blanc et noir 2
DYEAR=1999
DGENRE=Jazz
TTITLE0=It's a raggy waltz
TTITLE1=Surreal
TTITLE2=Time after time
TTITLE3=Dein ist mein ganzes Herz
TTITLE4=I loves you Porgy
TTITLE5=Madly
TTITLE6=The thrill is gone
TTITLE7=Willow weep for me
TTITLE8=Things ain't what they seem to be
TTITLE9=Someday my Prince will come
TTITLE10=The nearness of you
TTITLE11=I just found out about love
TTITLE12=In the wee small hours of the morning
EXTD=YEAR: 1999
EXTT0=
EXTT1=
EXTT2=
EXTT3=
EXTT4=
EXTT5=
EXTT6=
EXTT7=
EXTT8=
EXTT9=
EXTT10=
EXTT11=
EXTT12=
PLAYORDER=
